PathFileType	4	(X/Y/Z)	C:/Users/opensim2020/Desktop/walking_exp_matlab/subject06_walking12_static.trc																																																																																																																																														
DataRate	CameraRate	NumFrames	NumMarkers	Units	OrigDataRate	OrigDataStartFrame	OrigNumFrames																																																																																																																																										
100	100	6	48	mm	100	273	363																																																																																																																																										
Frame#	Time	LFHD			RFHD			LBHD			RBHD			C7			T10			CLAV			STRN			RBAK			LSHO			LUPA			LELB			LFRM			LWRA			LWRB			LFIN			RSHO			RUPA			RELB			RFRM			RWRA			RWRB			RFIN			LASI			RASI			LPSI			RPSI			LTHI			LKNE			LTIB			LANK			LHEE			LTOE			RTHI			RKNE			RTIB			RANK			RHEE			RTOE			*39			*40			*41			*42			*43			*44			*45			*46			*47		
		X1	Y1	Z1	X2	Y2	Z2	X3	Y3	Z3	X4	Y4	Z4	X5	Y5	Z5	X6	Y6	Z6	X7	Y7	Z7	X8	Y8	Z8	X9	Y9	Z9	X10	Y10	Z10	X11	Y11	Z11	X12	Y12	Z12	X13	Y13	Z13	X14	Y14	Z14	X15	Y15	Z15	X16	Y16	Z16	X17	Y17	Z17	X18	Y18	Z18	X19	Y19	Z19	X20	Y20	Z20	X21	Y21	Z21	X22	Y22	Z22	X23	Y23	Z23	X24	Y24	Z24	X25	Y25	Z25	X26	Y26	Z26	X27	Y27	Z27	X28	Y28	Z28	X29	Y29	Z29	X30	Y30	Z30	X31	Y31	Z31	X32	Y32	Z32	X33	Y33	Z33	X34	Y34	Z34	X35	Y35	Z35	X36	Y36	Z36	X37	Y37	Z37	X38	Y38	Z38	X39	Y39	Z39	X40	Y40	Z40	X41	Y41	Z41	X42	Y42	Z42	X43	Y43	Z43	X44	Y44	Z44	X45	Y45	Z45	X46	Y46	Z46	X47	Y47	Z47	X48	Y48	Z48
																																																																																																																																																	
273	2.72	389.66226	1677.40015	652.62317	405.14078	1663.14417	521.9812	522.05298	1621.50134	669.26459	535.4306	1613.44373	540.47784	527.3847	1461.11707	611.09082	557.87067	1133.83948	599.37048	414.75488	1388.62476	603.01825	369.37164	1215.86096	607.55627	601.27429	1291.00098	529.37799	462.35709	1418.84033	767.82269	443.56625	1219.16895	844.98944	431.41022	1108.57019	863.0473	376.46121	970.35767	894.06116	291.20676	870.53229	858.98041	348.95184	854.13147	897.11707	288.91092	785.67987	902.51208	470.87656	1419.59399	446.8349	475.84109	1225.30334	348.13635	439.55527	1112.55981	318.7049	410.67386	1000.26331	282.00742	333.34048	865.30725	282.80087	391.33661	866.78424	249.274	346.87448	797.64185	229.70511	380.7226	974.18268	700.0752	384.48679	981.1806	480.44662	536.99707	1005.47198	675.68817	533.58264	1011.50708	509.58389	482.72437	666.70807	779.11792	501.69034	503.49915	769.1134	545.50372	252.71088	794.31146	543.3327	74.95493	771.43817	582.90057	56.19694	729.40216	395.40836	39.20471	770.56415	479.75751	650.7677	412.35568	494.45615	525.72919	428.10574	562.62262	269.59918	406.87451	575.12024	78.59325	436.27509	612.91364	51.21438	479.43384	418.52585	35.89068	431.74939	496.72925	1713.77417	604.61218	NaN	NaN	NaN	NaN	NaN	NaN	NaN	NaN	NaN	NaN	NaN	NaN	NaN	NaN	NaN	NaN	NaN	NaN	NaN	NaN	NaN	NaN	NaN	NaN
274	2.73	389.57376	1677.39502	652.49561	405.0195	1663.14148	521.82697	521.99109	1621.5022	669.14075	535.36395	1613.40967	540.3493	527.34375	1461.09973	611.02643	557.72034	1133.80176	599.33557	414.69031	1388.58032	602.9798	369.35693	1215.77917	607.53088	601.22382	1290.95898	529.33856	462.32028	1418.84485	767.75854	443.52896	1219.18396	844.97913	431.3736	1108.58533	863.06866	376.45206	970.38977	894.09473	291.1676	870.56354	859.02698	348.89301	854.17688	897.17645	288.89658	785.73999	902.6142	470.78455	1419.52173	446.76849	475.77869	1225.22253	348.10947	439.45724	1112.47949	318.6792	410.58066	1000.18384	282.03372	333.23611	865.20282	282.84451	391.24304	866.67206	249.31392	346.80896	797.55023	229.74904	380.65509	974.16199	700.06885	384.39694	981.07556	480.42975	536.93677	1005.45752	675.69281	533.53046	1011.50793	509.58041	482.68729	666.70398	779.11975	501.66394	503.52155	769.16162	545.48242	252.69666	794.30548	543.32538	74.97173	771.4765	582.93353	56.20747	729.4032	395.4032	39.21461	770.54596	479.75418	650.79449	412.2999	494.44409	525.74261	428.1337	562.62488	269.58191	406.88162	575.11163	78.60884	436.23843	612.9176	51.21561	479.45438	418.54727	35.8634	431.80066	496.65317	1713.74866	604.47504	NaN	NaN	NaN	NaN	NaN	NaN	NaN	NaN	NaN	NaN	NaN	NaN	NaN	NaN	NaN	NaN	NaN	NaN	NaN	NaN	NaN	NaN	NaN	NaN
275	2.74	389.52252	1677.38245	652.36493	404.91211	1663.08167	521.70612	522.00055	1621.46606	669.06354	535.27374	1613.35449	540.211	527.28418	1461.09705	610.95093	557.69543	1133.86597	599.39844	414.64105	1388.5531	602.92365	369.34995	1215.72693	607.55243	601.20898	1290.9281	529.289	462.28793	1418.85461	767.74597	443.51413	1219.20532	844.96637	431.36713	1108.58582	863.09558	376.41714	970.39044	894.12439	291.11557	870.59845	859.07275	348.85318	854.17999	897.22516	288.83621	785.75037	902.64075	470.73038	1419.43665	446.7038	475.71603	1225.13525	348.04663	439.3671	1112.37354	318.68427	410.4931	1000.07452	282.04553	333.13455	865.1109	282.85345	391.17502	866.56372	249.35028	346.74045	797.44232	229.77457	380.58096	974.15845	700.05951	384.36624	981.04846	480.42282	536.85724	1005.45428	675.68597	533.46722	1011.49756	509.57086	482.65363	666.69141	779.11591	501.62503	503.5032	769.14948	545.47498	252.71043	794.33527	543.32202	74.95271	771.4325	582.9071	56.16435	729.39301	395.30374	39.2049	770.46625	479.69678	650.76538	412.32013	494.43329	525.75482	428.09863	562.61108	269.59323	406.85797	575.10876	78.56735	436.26358	612.93207	51.21361	479.40097	418.52649	35.87091	431.72128	496.59531	1713.72668	604.33514	NaN	NaN	NaN	NaN	NaN	NaN	NaN	NaN	NaN	NaN	NaN	NaN	NaN	NaN	NaN	NaN	NaN	NaN	NaN	NaN	NaN	NaN	NaN	NaN
276	2.75	389.44806	1677.38672	652.24548	404.77777	1663.06592	521.53979	521.8949	1621.49866	668.89313	535.13281	1613.32983	540.05524	527.22906	1461.06543	610.87189	557.72272	1133.80444	599.31024	414.60266	1388.53052	602.87469	369.32101	1215.67029	607.5282	601.14667	1290.89893	529.21887	462.26486	1418.8479	767.67383	443.51776	1219.21399	844.95605	431.33331	1108.58496	863.05878	376.38089	970.40991	894.11768	291.0618	870.62671	859.10974	348.80591	854.20471	897.2373	288.75555	785.78534	902.68884	470.6799	1419.3645	446.64108	475.62589	1225.02258	348.05768	439.29205	1112.26563	318.68802	410.4216	999.97772	282.07281	332.96872	865.01099	282.74649	391.05826	866.46509	249.37901	346.61008	797.35156	229.8159	380.50458	974.12915	700.0387	384.2688	981.00305	480.37216	536.80859	1005.44745	675.69696	533.3999	1011.48578	509.5791	482.57828	666.68573	779.08624	501.60379	503.5105	769.16473	545.45459	252.69766	794.34167	543.32745	74.96346	771.46399	582.9093	56.19122	729.38757	395.29623	39.18306	770.4696	479.68109	650.77625	412.27795	494.42548	525.7489	428.17169	562.59821	269.60278	406.83856	575.09436	78.55233	436.24054	612.93634	51.195	479.41205	418.54593	35.89259	431.77887	496.51495	1713.72424	604.18079	NaN	NaN	NaN	NaN	NaN	NaN	NaN	NaN	NaN	NaN	NaN	NaN	NaN	NaN	NaN	NaN	NaN	NaN	NaN	NaN	NaN	NaN	NaN	NaN
277	2.76	389.38852	1677.37341	652.13336	404.74731	1663.02673	521.41113	521.94189	1621.50391	668.81427	535.06281	1613.31946	539.89893	527.19739	1461.04016	610.80981	557.72095	1133.85364	599.39502	414.54892	1388.49329	602.83588	369.31302	1215.62854	607.50714	601.1145	1290.86743	529.203	462.24643	1418.83899	767.59735	443.51443	1219.2157	844.93378	431.32587	1108.61023	863.07336	376.34509	970.43109	894.12268	291.00488	870.6441	859.13837	348.75693	854.24744	897.26294	288.7019	785.84064	902.78198	470.6402	1419.28906	446.55307	475.5708	1224.95813	348.01846	439.21753	1112.17676	318.66656	410.3287	999.88733	282.06693	332.87625	864.92621	282.772	391.01254	866.35028	249.41527	346.57806	797.2171	229.87958	380.40463	974.10181	700.05231	384.16586	980.97235	480.3472	536.68842	1005.44965	675.68237	533.30908	1011.47577	509.57291	482.49637	666.67328	779.11157	501.54922	503.49808	769.15613	545.42816	252.70081	794.33228	543.30194	74.97061	771.4472	582.88519	56.18232	729.4234	395.28976	39.16869	770.46259	479.65897	650.771	412.26273	494.44287	525.71924	428.12512	562.60468	269.59308	406.82761	575.10535	78.57826	436.24844	612.94141	51.20103	479.41937	418.53152	35.86523	431.80212	496.42776	1713.70972	604.0321	NaN	NaN	NaN	NaN	NaN	NaN	NaN	NaN	NaN	NaN	NaN	NaN	NaN	NaN	NaN	NaN	NaN	NaN	NaN	NaN	NaN	NaN	NaN	NaN
278	2.77	389.3313	1677.37817	652.02081	404.647	1662.9917	521.29236	521.88379	1621.51721	668.70905	535.01569	1613.34082	539.80029	527.11469	1461.05347	610.66925	557.53168	1133.75891	599.28668	414.52734	1388.47205	602.7818	369.24152	1215.5769	607.44763	601.07465	1290.80151	529.18024	462.23431	1418.84131	767.52502	443.51114	1219.21619	844.91125	431.30875	1108.60938	863.05206	376.32968	970.47345	894.15277	290.94901	870.67542	859.17847	348.70068	854.24994	897.28235	288.64722	785.8645	902.81305	470.61285	1419.21521	446.49396	475.50961	1224.87488	347.95108	439.24612	1111.92078	318.96646	410.28226	999.79376	282.10919	332.83191	864.82764	282.79501	390.95493	866.23944	249.44463	346.50424	797.1637	229.90285	380.31461	974.06934	700.04547	384.03864	980.89532	480.2847	536.60779	1005.42871	675.66785	533.23688	1011.47601	509.5658	482.45718	666.66235	779.13586	501.51175	503.48114	769.13843	545.40582	252.69717	794.32837	543.30823	74.95254	771.46179	582.93121	56.18885	729.37158	395.2908	39.1926	770.47803	479.58987	650.73572	412.28503	494.44025	525.7323	428.15158	562.59454	269.60684	406.82605	575.10675	78.5989	436.23569	612.94135	51.20496	479.42538	418.526	35.89511	431.75235	496.33972	1713.71741	603.86969	NaN	NaN	NaN	NaN	NaN	NaN	NaN	NaN	NaN	NaN	NaN	NaN	NaN	NaN	NaN	NaN	NaN	NaN	NaN	NaN	NaN	NaN	NaN	NaN
